<?xml version="1.0" encoding="UTF-8"?>
<svg version="1.1" xmlns="http://www.w3.org/2000/svg" width="240" height="365">
<path d="M0 0 C0 0.66 0 1.32 0 2 C0.99 2 1.98 2 3 2 C8.34787437 7.16458029 13.10834279 13.47045023 14 21 C13.87879414 30.93888063 9.48286741 40.39676366 5.95117188 49.52978516 C4.45200354 53.42315919 3.00511772 57.33538595 1.5625 61.25 C1.13384644 62.4093103 1.13384644 62.4093103 0.6965332 63.59204102 C-1.96740681 70.83308074 -4.48875761 78.12176101 -7.00610352 85.41479492 C-9.49544156 92.60614854 -12.08198173 99.75688797 -14.7421875 106.88671875 C-15.0103125 107.60601562 -15.2784375 108.3253125 -15.5546875 109.06640625 C-15.78655762 109.68459229 -16.01842773 110.30277832 -16.25732422 110.93969727 C-16.84752356 112.57700571 -17.40657117 114.22553653 -17.95458984 115.87744141 C-18.96923291 118.9081011 -20.05381425 121.90062924 -21.171875 124.89453125 C-21.58638916 126.00747559 -22.00090332 127.12041992 -22.42797852 128.26708984 C-23.08237915 130.02206787 -23.08237915 130.02206787 -23.75 131.8125 C-28.21067503 143.8238932 -28.21067503 143.8238932 -32.5625 155.875 C-32.80129883 156.53862549 -33.04009766 157.20225098 -33.28613281 157.88598633 C-34.46712588 161.2314 -35.40785594 164.50036204 -36 168 C-36.66 168 -37.32 168 -38 168 C-38.08507813 168.92941406 -38.17015625 169.85882813 -38.2578125 170.81640625 C-39.01564248 176.10393227 -41.0001651 180.9614597 -42.875 185.9375 C-43.40287109 187.36352539 -43.40287109 187.36352539 -43.94140625 188.81835938 C-45.24839768 192.34334928 -46.55642175 195.86674871 -47.92675781 199.36767578 C-49.10345693 202.39238707 -50 204.72282297 -50 208 C-49.67 207.34 -49.34 206.68 -49 206 C-47.33990821 205.26572863 -45.67715972 204.53429857 -43.984375 203.87890625 C-39.36076072 201.83104559 -35.15862778 198.85555809 -30.875 196.1875 C-26.03500522 193.19215675 -21.12112201 190.3963697 -16.10546875 187.70703125 C-12.04998686 185.47779152 -8.05448872 183.15312648 -4.0625 180.8125 C-3.32805664 180.38404785 -2.59361328 179.9555957 -1.83691406 179.51416016 C1.00794813 177.83943643 3.74419224 176.19364102 6.37890625 174.19921875 C8 173 8 173 10 173 C10 172.34 10 171.68 10 171 C11.98 170.67 13.96 170.34 16 170 C16 169.34 16 168.68 16 168 C17.15371094 167.443125 18.30742188 166.88625 19.49609375 166.3125 C23.86070701 164.12971301 27.95560323 161.62905128 32.0625 159 C39.00173225 154.5835166 46.01496577 150.49530429 53.3125 146.6875 C58.26830826 144.03948804 62.82292572 141.17365576 67.29296875 137.7734375 C69.71945671 136.18379026 72.0846886 134.93892977 74.6875 133.671875 C79.96974859 131.08327514 84.87624539 128.06506946 89.8125 124.875 C92.20032464 123.34574016 94.58885605 121.81761848 96.97900391 120.29199219 C98.6182074 119.24407423 100.25312477 118.1894538 101.88671875 117.1328125 C104 116 104 116 107 116 C107 115.34 107 114.68 107 114 C107.99 114 108.98 114 110 114 C110 113.34 110 112.68 110 112 C117.18665614 108.61804417 125.40967024 107.24735608 133.16796875 109.6796875 C134.8125 110.5 134.8125 110.5 137 112 C137 112.66 137 113.32 137 114 C137.66 114 138.32 114 139 114 C141.15942819 117.23914229 141.27232978 118.24859733 141.25 122 C141.25773437 123.299375 141.25773437 123.299375 141.265625 124.625 C141 127 141 127 139 130 C136.04735927 132.04413589 134.63327194 133 131 133 C131 133.66 131 134.32 131 135 C130.236875 135.37125 129.47375 135.7425 128.6875 136.125 C120.2864057 140.32554715 111.819148 144.78723467 104 150 C103.01 150 102.02 150 101 150 C101 150.66 101 151.32 101 152 C100.24074219 152.40992188 99.48148438 152.81984375 98.69921875 153.2421875 C97.70535156 153.78101563 96.71148437 154.31984375 95.6875 154.875 C94.70136719 155.40867188 93.71523437 155.94234375 92.69921875 156.4921875 C89.90413542 158.00722126 89.90413542 158.00722126 87 160 C86.01 160 85.02 160 84 160 C84 160.66 84 161.32 84 162 C82.05780718 162.97109641 80.11544495 163.94181732 78.171875 164.91015625 C76.31531568 165.84177505 74.4690365 166.79383293 72.625 167.75 C70 169 70 169 68 169 C68 169.66 68 170.32 68 171 C66.02 171.33 64.04 171.66 62 172 C62 172.66 62 173.32 62 174 C60.865625 174.45375 59.73125 174.9075 58.5625 175.375 C54.95278308 176.57095806 54.95278308 176.57095806 54 179 C51.8203125 180.2890625 51.8203125 180.2890625 49.125 181.625 C48.24070313 182.07101563 47.35640625 182.51703125 46.4453125 182.9765625 C44 184 44 184 41 184 C41 184.66 41 185.32 41 186 C40.20335937 186.38671875 39.40671875 186.7734375 38.5859375 187.171875 C31.79275849 190.44377494 31.79275849 190.44377494 25.375 194.375 C23 196 23 196 21 196 C21 196.66 21 197.32 21 198 C20.01 198 19.02 198 18 198 C18 198.66 18 199.32 18 200 C16.72942818 200.47985967 15.45853152 200.9588593 14.1875 201.4375 C13.47980469 201.70433594 12.77210937 201.97117188 12.04296875 202.24609375 C10.37327604 202.86225186 8.68842296 203.43719235 7 204 C7 204.66 7 205.32 7 206 C6.40832031 206.25394531 5.81664063 206.50789062 5.20703125 206.76953125 C0.94916874 208.62409779 -3.02387516 210.59022737 -7 213 C-7.66 213 -8.32 213 -9 213 C-9 213.66 -9 214.32 -9 215 C-9.81791016 215.34611328 -9.81791016 215.34611328 -10.65234375 215.69921875 C-15.67419913 217.8710639 -20.43032311 220.28195286 -25.15234375 223.046875 C-27 224 -27 224 -29 224 C-29 224.66 -29 225.32 -29 226 C-29.70382813 226.3403125 -30.40765625 226.680625 -31.1328125 227.03125 C-37.69323292 230.25150859 -44.06464114 233.6720023 -50.36572266 237.37109375 C-56.68950509 241.06042074 -61.76604625 241.60110217 -69 241 C-72.4375 239.625 -72.4375 239.625 -75 238 C-75.63550781 237.72929687 -76.27101563 237.45859375 -76.92578125 237.1796875 C-79.55558517 235.68401747 -80.9251349 233.90195919 -82.75 231.5 C-83.67039062 230.30890625 -83.67039062 230.30890625 -84.609375 229.09375 C-86 227 -86 227 -86 225 C-86.66 225 -87.32 225 -88 225 C-91.44029619 214.2490744 -86.23906108 202.717595 -82.08203125 192.86328125 C-79.63505393 186.38806689 -77.88418288 179.65641657 -76 173 C-75.34 173 -74.68 173 -74 173 C-73.896875 171.88625 -73.79375 170.7725 -73.6875 169.625 C-72.82880122 162.85082076 -70.66196489 156.5953559 -68.1015625 150.29296875 C-66.09382623 145.31713439 -64.35325708 140.28642564 -62.6875 135.1875 C-62.07685009 133.33853269 -61.46617221 131.48957462 -60.85546875 129.640625 C-60.54786621 128.70541016 -60.24026367 127.77019531 -59.92333984 126.80664062 C-58.4564365 122.34775092 -56.9804935 117.89189421 -55.5 113.4375 C-55.21366699 112.57535889 -54.92733398 111.71321777 -54.63232422 110.82495117 C-52.58743966 104.69431157 -50.46510016 98.59354982 -48.3125 92.5 C-46.46007466 87.25556242 -44.65537826 82.01805313 -43.0625 76.6875 C-40.92167595 69.52361691 -38.40359069 62.49625923 -35.92651367 55.44360352 C-33.80803145 49.38945209 -31.82944914 43.31775907 -29.9921875 37.171875 C-28.29299147 31.7397995 -26.36773724 26.3887296 -24.4375 21.03515625 C-23.55777226 18.59356813 -22.7297749 16.15654003 -21.9375 13.68359375 C-20.3780078 8.9076489 -18.85792246 4.39328556 -15.05859375 0.94921875 C-10.41444127 -1.1922026 -4.97930649 -0.39893554 0 0 Z " fill="#EE6823" transform="translate(99,0)"/>
<path d="M0 0 C3.03300503 2.04551502 4.64020074 3.77457206 6.6875 6.8125 C7.13480469 7.47507813 7.58210937 8.13765625 8.04296875 8.8203125 C11.37352795 14.17532925 12.78335885 18.5227268 11.6875 24.8125 C10.87539255 27.31803606 9.89165716 29.45435889 8.6875 31.8125 C8.0275 31.8125 7.3675 31.8125 6.6875 31.8125 C6.3575 32.8025 6.0275 33.7925 5.6875 34.8125 C4.6975 34.8125 3.7075 34.8125 2.6875 34.8125 C2.6875 35.4725 2.6875 36.1325 2.6875 36.8125 C0.2125 37.3075 0.2125 37.3075 -2.3125 37.8125 C-2.3125 38.4725 -2.3125 39.1325 -2.3125 39.8125 C-2.99957031 40.15023437 -3.68664062 40.48796875 -4.39453125 40.8359375 C-5.29558594 41.28195312 -6.19664062 41.72796875 -7.125 42.1875 C-8.01832031 42.62835938 -8.91164062 43.06921875 -9.83203125 43.5234375 C-12.45806381 44.83116905 -12.45806381 44.83116905 -15.3125 46.8125 C-16.3025 46.8125 -17.2925 46.8125 -18.3125 46.8125 C-18.3125 47.4725 -18.3125 48.1325 -18.3125 48.8125 C-20.7875 49.3075 -20.7875 49.3075 -23.3125 49.8125 C-23.3125 50.4725 -23.3125 51.1325 -23.3125 51.8125 C-23.99957031 52.15023437 -24.68664062 52.48796875 -25.39453125 52.8359375 C-26.29558594 53.28195312 -27.19664062 53.72796875 -28.125 54.1875 C-29.01832031 54.62835938 -29.91164062 55.06921875 -30.83203125 55.5234375 C-33.45806381 56.83116905 -33.45806381 56.83116905 -36.3125 58.8125 C-37.3025 58.8125 -38.2925 58.8125 -39.3125 58.8125 C-39.3125 59.4725 -39.3125 60.1325 -39.3125 60.8125 C-40.9625 61.1425 -42.6125 61.4725 -44.3125 61.8125 C-44.3125 62.4725 -44.3125 63.1325 -44.3125 63.8125 C-45.23869141 64.26689453 -45.23869141 64.26689453 -46.18359375 64.73046875 C-51.38441193 67.3031718 -56.48108557 69.98176841 -61.5 72.89453125 C-63.3125 73.8125 -63.3125 73.8125 -65.3125 73.8125 C-65.3125 74.4725 -65.3125 75.1325 -65.3125 75.8125 C-65.91835937 76.10382813 -66.52421875 76.39515625 -67.1484375 76.6953125 C-73.41538207 79.76129461 -79.36227646 83.17770853 -85.3125 86.8125 C-87.45343931 88.11226242 -89.59936334 89.40384683 -91.75 90.6875 C-93.23306641 91.58082031 -93.23306641 91.58082031 -94.74609375 92.4921875 C-97.3125 93.8125 -97.3125 93.8125 -100.3125 93.8125 C-100.3125 94.4725 -100.3125 95.1325 -100.3125 95.8125 C-100.9111084 96.10382813 -101.5097168 96.39515625 -102.12646484 96.6953125 C-108.53080222 99.84974315 -114.75239813 103.24973664 -120.9375 106.8125 C-122.27167969 107.57433594 -122.27167969 107.57433594 -123.6328125 108.3515625 C-128.3939712 111.08222705 -133.06843313 113.88179779 -137.63427734 116.9296875 C-139.3125 117.8125 -139.3125 117.8125 -142.3125 117.8125 C-142.3125 118.4725 -142.3125 119.1325 -142.3125 119.8125 C-146.54721755 121.92985878 -150.65946461 122.76463358 -155.3125 121.8125 C-159.72168105 119.70651736 -163.46771055 117.63063381 -165.5703125 113.10546875 C-165.81523437 112.34878906 -166.06015625 111.59210938 -166.3125 110.8125 C-166.9725 110.8125 -167.6325 110.8125 -168.3125 110.8125 C-168.3125 109.8225 -168.3125 108.8325 -168.3125 107.8125 C-168.9725 107.8125 -169.6325 107.8125 -170.3125 107.8125 C-171.34474706 91.88913331 -171.34474706 91.88913331 -167.9375 87.6875 C-163.90025506 84.03202763 -159.06331336 81.42093708 -154.3125 78.8125 C-152.99967342 78.02137503 -151.68712906 77.22978132 -150.375 76.4375 C-147.3125 74.8125 -147.3125 74.8125 -144.3125 74.8125 C-144.3125 74.1525 -144.3125 73.4925 -144.3125 72.8125 C-142.08458002 71.68497351 -139.85524113 70.56041861 -137.625 69.4375 C-136.99916016 69.12039063 -136.37332031 68.80328125 -135.72851562 68.4765625 C-132.98988786 67.10007944 -130.28416803 65.80171779 -127.41796875 64.7109375 C-125.14034789 64.0074781 -125.14034789 64.0074781 -124.3125 61.8125 C-109.65535714 51.8125 -109.65535714 51.8125 -104.3125 51.8125 C-104.3125 51.1525 -104.3125 50.4925 -104.3125 49.8125 C-103.6525 49.585625 -102.9925 49.35875 -102.3125 49.125 C-99.07605138 47.70905373 -96.27814171 45.95205463 -93.30859375 44.0546875 C-86.49174528 39.8125 -86.49174528 39.8125 -83.3125 39.8125 C-83.3125 39.1525 -83.3125 38.4925 -83.3125 37.8125 C-82.69503906 37.50957031 -82.07757813 37.20664062 -81.44140625 36.89453125 C-76.24058807 34.3218282 -71.14391443 31.64323159 -66.125 28.73046875 C-64.3125 27.8125 -64.3125 27.8125 -62.3125 27.8125 C-62.3125 27.1525 -62.3125 26.4925 -62.3125 25.8125 C-61.77625 25.55597656 -61.24 25.29945313 -60.6875 25.03515625 C-50.99952951 20.30271014 -41.33733946 15.16628364 -32.3125 9.25 C-11.28972141 -4.04725862 -11.28972141 -4.04725862 0 0 Z " fill="#F06815" transform="translate(170.3125,243.1875)"/>
<path d="M0 0 C0.75539062 0.09925781 1.51078125 0.19851562 2.2890625 0.30078125 C4.375 0.6875 4.375 0.6875 7.375 1.6875 C7.375 2.3475 7.375 3.0075 7.375 3.6875 C8.035 3.6875 8.695 3.6875 9.375 3.6875 C9.375 4.3475 9.375 5.0075 9.375 5.6875 C10.035 5.6875 10.695 5.6875 11.375 5.6875 C15.56162397 12.35370185 18.62611152 17.68988839 17.375 25.6875 C17.06189633 27.0257283 16.73410839 28.36087645 16.375 29.6875 C15.715 29.6875 15.055 29.6875 14.375 29.6875 C14.1584375 30.27015625 13.941875 30.8528125 13.71875 31.453125 C11.92955487 34.42818202 9.81766135 35.62544012 6.875 37.4375 C5.8953125 38.05109375 4.915625 38.6646875 3.90625 39.296875 C1.375 40.6875 1.375 40.6875 -0.625 40.6875 C-0.955 41.3475 -1.285 42.0075 -1.625 42.6875 C-3.60388961 43.41443904 -5.60454558 44.08566251 -7.625 44.6875 C-7.625 45.3475 -7.625 46.0075 -7.625 46.6875 C-9.18619422 47.48173861 -10.74901964 48.27277123 -12.3125 49.0625 C-13.18261719 49.50335938 -14.05273438 49.94421875 -14.94921875 50.3984375 C-17.47272799 51.61414268 -20.01237532 52.68010958 -22.625 53.6875 C-22.625 54.3475 -22.625 55.0075 -22.625 55.6875 C-25.595 56.1825 -25.595 56.1825 -28.625 56.6875 C-28.625 57.3475 -28.625 58.0075 -28.625 58.6875 C-31.1 59.1825 -31.1 59.1825 -33.625 59.6875 C-33.625 60.3475 -33.625 61.0075 -33.625 61.6875 C-40.25 65.6875 -40.25 65.6875 -43.625 65.6875 C-43.625 66.3475 -43.625 67.0075 -43.625 67.6875 C-44.40423828 68.05101562 -44.40423828 68.05101562 -45.19921875 68.421875 C-49.46731384 70.47308521 -52.94265769 72.68348391 -56.625 75.6875 C-58.60746398 76.72182904 -60.60913316 77.71988392 -62.625 78.6875 C-63.87935562 79.40914811 -65.1293336 80.13845452 -66.375 80.875 C-69.625 82.6875 -69.625 82.6875 -71.625 82.6875 C-71.955 83.3475 -72.285 84.0075 -72.625 84.6875 C-74.5683934 85.9525661 -76.55476113 87.15226089 -78.5625 88.3125 C-79.64402344 88.94414062 -80.72554688 89.57578125 -81.83984375 90.2265625 C-84.625 91.6875 -84.625 91.6875 -86.625 91.6875 C-86.955 92.3475 -87.285 93.0075 -87.625 93.6875 C-89.5859375 94.9765625 -89.5859375 94.9765625 -92 96.3125 C-92.79148437 96.75851562 -93.58296875 97.20453125 -94.3984375 97.6640625 C-96.625 98.6875 -96.625 98.6875 -99.625 98.6875 C-99.625 99.3475 -99.625 100.0075 -99.625 100.6875 C-102.53048882 102.72919485 -104.02642046 103.6875 -107.625 103.6875 C-107.625 104.3475 -107.625 105.0075 -107.625 105.6875 C-108.29144531 106.03941406 -108.95789063 106.39132812 -109.64453125 106.75390625 C-114.63309287 109.4261008 -119.46604299 112.18959344 -124.1875 115.3125 C-137.07951741 123.5348236 -137.07951741 123.5348236 -145.25 121.9375 C-146.71622455 121.54951443 -148.17833946 121.14304417 -149.625 120.6875 C-149.625 120.0275 -149.625 119.3675 -149.625 118.6875 C-150.285 118.6875 -150.945 118.6875 -151.625 118.6875 C-151.625 118.0275 -151.625 117.3675 -151.625 116.6875 C-152.285 116.6875 -152.945 116.6875 -153.625 116.6875 C-157.6651402 112.5170327 -160.50671194 107.45880158 -160.69140625 101.5703125 C-160.08540689 95.01562557 -157.38888999 91.0047753 -152.625 86.6875 C-149.625 84.6875 -149.625 84.6875 -146.625 84.6875 C-146.625 84.0275 -146.625 83.3675 -146.625 82.6875 C-144.645 82.1925 -144.645 82.1925 -142.625 81.6875 C-142.625 81.0275 -142.625 80.3675 -142.625 79.6875 C-141.696875 79.336875 -140.76875 78.98625 -139.8125 78.625 C-135.4100537 76.74709534 -131.55335134 74.14100986 -127.55078125 71.5390625 C-115.14398734 63.6875 -115.14398734 63.6875 -111.625 63.6875 C-111.13 62.6975 -111.13 62.6975 -110.625 61.6875 C-108.39445699 60.31238775 -106.16693125 59.01427382 -103.875 57.75 C-102.62994588 57.0538546 -101.38514972 56.35724763 -100.140625 55.66015625 C-99.54185547 55.32773926 -98.94308594 54.99532227 -98.32617188 54.65283203 C-96.7946142 53.78374778 -95.29340763 52.86169203 -93.796875 51.93359375 C-91.625 50.6875 -91.625 50.6875 -89.625 50.6875 C-89.625 50.0275 -89.625 49.3675 -89.625 48.6875 C-88.965 48.6875 -88.305 48.6875 -87.625 48.6875 C-87.625 48.0275 -87.625 47.3675 -87.625 46.6875 C-86.655625 46.23375 -85.68625 45.78 -84.6875 45.3125 C-81.55420418 44.02963779 -81.55420418 44.02963779 -80.625 41.6875 C-79.29166667 41.35416667 -77.95833333 41.02083333 -76.625 40.6875 C-76.13 39.6975 -76.13 39.6975 -75.625 38.6875 C-72.5625 38.0625 -72.5625 38.0625 -69.625 37.6875 C-69.625 37.0275 -69.625 36.3675 -69.625 35.6875 C-69.09132813 35.42195313 -68.55765625 35.15640625 -68.0078125 34.8828125 C-66.22770086 33.98983846 -64.45242353 33.08721549 -62.6796875 32.1796875 C-61.63039063 31.64601562 -60.58109375 31.11234375 -59.5 30.5625 C-58.44554688 30.02367187 -57.39109375 29.48484375 -56.3046875 28.9296875 C-53.625 27.6875 -53.625 27.6875 -51.625 27.6875 C-51.625 27.0275 -51.625 26.3675 -51.625 25.6875 C-49.645 25.3575 -47.665 25.0275 -45.625 24.6875 C-45.625 24.0275 -45.625 23.3675 -45.625 22.6875 C-44.779375 22.24019531 -43.93375 21.79289062 -43.0625 21.33203125 C-35.38163423 17.2476394 -35.38163423 17.2476394 -27.9375 12.75 C-24.625 10.6875 -24.625 10.6875 -22.625 10.6875 C-22.295 10.0275 -21.965 9.3675 -21.625 8.6875 C-19.74394826 7.46423936 -17.81966794 6.30686984 -15.875 5.1875 C-14.82828125 4.5790625 -13.7815625 3.970625 -12.703125 3.34375 C-8.24002151 0.94228315 -5.10955792 -0.72868266 0 0 Z " fill="#FE9940" transform="translate(165.625,183.3125)"/>
<path d="M0 0 C-1.65 0.66 -3.3 1.32 -5 2 C-5 2.66 -5 3.32 -5 4 C-5.59167969 4.25394531 -6.18335938 4.50789062 -6.79296875 4.76953125 C-11.05083126 6.62409779 -15.02387516 8.59022737 -19 11 C-19.66 11 -20.32 11 -21 11 C-21 11.66 -21 12.32 -21 13 C-21.54527344 13.23074219 -22.09054688 13.46148437 -22.65234375 13.69921875 C-27.67419913 15.8710639 -32.43032311 18.28195286 -37.15234375 21.046875 C-39 22 -39 22 -41 22 C-41 22.66 -41 23.32 -41 24 C-42.89454824 24.96087136 -44.79069581 25.91858969 -46.6875 26.875 C-48.27111328 27.67550781 -48.27111328 27.67550781 -49.88671875 28.4921875 C-52.55995905 29.78688105 -55.2271133 30.94023254 -58 32 C-58 31.34 -58 30.68 -58 30 C-56.27559635 29.01246936 -54.54524974 28.03531194 -52.8125 27.0625 C-51.84957031 26.51722656 -50.88664062 25.97195312 -49.89453125 25.41015625 C-47.19337158 24.09420667 -44.95643899 23.42698113 -42 23 C-42 22.34 -42 21.68 -42 21 C-36.25 18 -36.25 18 -34 18 C-34 17.34 -34 16.68 -34 16 C-33.154375 15.5875 -32.30875 15.175 -31.4375 14.75 C-26.98737366 12.48448114 -22.67905307 10.04172957 -18.4375 7.41015625 C-17.550625 6.86230469 -16.66375 6.31445312 -15.75 5.75 C-14.50476563 4.96882812 -14.50476563 4.96882812 -13.234375 4.171875 C-11 3 -11 3 -8 3 C-8 2.34 -8 1.68 -8 1 C-3.375 -1.125 -3.375 -1.125 0 0 Z " fill="#D8956D" transform="translate(111,202)"/>
<path d="M0 0 C2.390625 2.02734375 2.390625 2.02734375 4 4 C3.29101562 3.83886719 2.58203125 3.67773438 1.8515625 3.51171875 C-1.02867364 2.99485446 -3.70117753 2.83263652 -6.625 2.8125 C-7.56601563 2.79832031 -8.50703125 2.78414063 -9.4765625 2.76953125 C-12.24704023 2.82039293 -12.24704023 2.82039293 -15 5 C-16.5159375 5.495 -16.5159375 5.495 -18.0625 6 C-21.08055734 6.78621891 -21.08055734 6.78621891 -23 9 C-24.98821313 9.39764263 -26.98944339 9.73775349 -29 10 C-28.34 9.01 -27.68 8.02 -27 7 C-26.01 7 -25.02 7 -24 7 C-24 6.34 -24 5.68 -24 5 C-23.01 5 -22.02 5 -21 5 C-21 4.34 -21 3.68 -21 3 C-14.25026503 -0.17634587 -7.42750403 -1.24774208 0 0 Z " fill="#E28B5B" transform="translate(230,109)"/>
<path d="M0 0 C0.33 0.99 0.66 1.98 1 3 C-0.65 3.33 -2.3 3.66 -4 4 C-4 4.66 -4 5.32 -4 6 C-5.65 6.33 -7.3 6.66 -9 7 C-9 7.66 -9 8.32 -9 9 C-9.9075 9.4125 -10.815 9.825 -11.75 10.25 C-16.78638557 12.96189992 -19.18883989 15.56651967 -21 21 C-21.33 21 -21.66 21 -22 21 C-22.4730205 18.39838723 -22.36508195 16.6229573 -21.015625 14.3203125 C-15.59547374 7.4689977 -7.76105179 3.67628769 0 0 Z " fill="#F39458" transform="translate(22,319)"/>
<path d="M0 0 C0.33 0.99 0.66 1.98 1 3 C-1.58789062 4.46484375 -1.58789062 4.46484375 -4.17578125 5.9296875 C-5.81982289 6.89428581 -7.41400588 7.94267059 -9 9 C-9.99 9 -10.98 9 -12 9 C-12 9.66 -12 10.32 -12 11 C-13.65 11.33 -15.3 11.66 -17 12 C-17 12.66 -17 13.32 -17 14 C-19.64 14.66 -22.28 15.32 -25 16 C-25 15.34 -25 14.68 -25 14 C-22.77208002 12.87247351 -20.54274113 11.74791861 -18.3125 10.625 C-17.68666016 10.30789063 -17.06082031 9.99078125 -16.41601562 9.6640625 C-13.67738786 8.28757944 -10.97166803 6.98921779 -8.10546875 5.8984375 C-5.82784789 5.1949781 -5.82784789 5.1949781 -5 3 C-3.35857037 1.9590934 -1.69287785 0.95495674 0 0 Z " fill="#F39357" transform="translate(51,302)"/>
<path d="M0 0 C0 0.66 0 1.32 0 2 C-0.66 2 -1.32 2 -2 2 C-2 2.66 -2 3.32 -2 4 C-3.56119422 4.79423861 -5.12401964 5.58527123 -6.6875 6.375 C-7.99267578 7.03628906 -7.99267578 7.03628906 -9.32421875 7.7109375 C-11.84772799 8.92664268 -14.38737532 9.99260958 -17 11 C-17 11.66 -17 12.32 -17 13 C-18.65 13.33 -20.3 13.66 -22 14 C-22 13.34 -22 12.68 -22 12 C-21.34 12 -20.68 12 -20 12 C-20 11.34 -20 10.68 -20 10 C-18.43880578 9.20576139 -16.87598036 8.41472877 -15.3125 7.625 C-14.00732422 6.96371094 -14.00732422 6.96371094 -12.67578125 6.2890625 C-10.15227201 5.07335732 -7.61262468 4.00739042 -5 3 C-5 2.34 -5 1.68 -5 1 C-2 0 -2 0 0 0 Z " fill="#FDB06C" transform="translate(160,226)"/>
<path d="M0 0 C0 0.66 0 1.32 0 2 C-1.86392955 3.30775702 -3.79531569 4.51973672 -5.75 5.6875 C-6.33257568 6.0369165 -6.91515137 6.38633301 -7.51538086 6.74633789 C-8.73263774 7.47432618 -9.95200514 8.19879581 -11.17333984 8.91992188 C-12.91956767 9.95244151 -14.65727818 10.99932539 -16.39453125 12.046875 C-25.17985072 17.28990166 -25.17985072 17.28990166 -29 18 C-29 17.34 -29 16.68 -29 16 C-28.3915625 15.68289062 -27.783125 15.36578125 -27.15625 15.0390625 C-20.33436498 11.40741195 -13.80269852 7.43935162 -7.30859375 3.25244141 C-2.21023937 0 -2.21023937 0 0 0 Z " fill="#D49D79" transform="translate(200,119)"/>
<path d="M0 0 C-6.75 4 -6.75 4 -9 4 C-9 4.66 -9 5.32 -9 6 C-10.56119422 6.79423861 -12.12401964 7.58527123 -13.6875 8.375 C-14.55761719 8.81585938 -15.42773438 9.25671875 -16.32421875 9.7109375 C-18.84772799 10.92664268 -21.38737532 11.99260958 -24 13 C-24 12.34 -24 11.68 -24 11 C-23.34 11 -22.68 11 -22 11 C-22 10.34 -22 9.68 -22 9 C-21.31292969 8.66226562 -20.62585938 8.32453125 -19.91796875 7.9765625 C-18.56638672 7.30753906 -18.56638672 7.30753906 -17.1875 6.625 C-16.29417969 6.18414062 -15.40085937 5.74328125 -14.48046875 5.2890625 C-11.85443619 3.98133095 -11.85443619 3.98133095 -9 2 C-8.01 2 -7.02 2 -6 2 C-6 1.34 -6 0.68 -6 0 C-3 -1 -3 -1 0 0 Z " fill="#F39051" transform="translate(114,313)"/>
<path d="M0 0 C0 0.99 0 1.98 0 3 C-2.04337711 4.48391662 -4.00808949 5.74924877 -6.1875 7 C-7.0547168 7.51433594 -7.0547168 7.51433594 -7.93945312 8.0390625 C-9.62115692 9.03478316 -11.31048757 10.01758714 -13 11 C-14.34964844 11.81210938 -14.34964844 11.81210938 -15.7265625 12.640625 C-18.43006018 14.25714939 -21.1203143 15.72013969 -24 17 C-24.66 16.67 -25.32 16.34 -26 16 C-19.05828053 11.42319498 -12.02687706 7.31242006 -4.65234375 3.48046875 C-1.94635545 2.12822144 -1.94635545 2.12822144 0 0 Z " fill="#D6976F" transform="translate(161,141)"/>
<path d="M0 0 C0.66 0 1.32 0 2 0 C2.433125 1.051875 2.86625 2.10375 3.3125 3.1875 C5.6760086 8.6290663 7.46778998 12.30136097 13 15 C15.19130534 15.69579454 15.19130534 15.69579454 17 16 C17 16.99 17 17.98 17 19 C11.78576025 17.63436578 8.79783558 15.70951382 5 12 C4.125 9.6875 4.125 9.6875 4 8 C3.34 8 2.68 8 2 8 C2 7.01 2 6.02 2 5 C1.34 5 0.68 5 0 5 C0 3.35 0 1.7 0 0 Z " fill="#F3A16E" transform="translate(0,346)"/>
<path d="M0 0 C0.33 0.99 0.66 1.98 1 3 C-0.65 3.33 -2.3 3.66 -4 4 C-4 4.66 -4 5.32 -4 6 C-5.65 6.33 -7.3 6.66 -9 7 C-9 7.66 -9 8.32 -9 9 C-10.28913487 9.67154933 -11.58140204 10.33708859 -12.875 11 C-13.59429687 11.37125 -14.31359375 11.7425 -15.0546875 12.125 C-17 13 -17 13 -19 13 C-19 12.34 -19 11.68 -19 11 C-17.21118264 9.99491199 -15.41885304 8.99607264 -13.625 8 C-12.62726563 7.443125 -11.62953125 6.88625 -10.6015625 6.3125 C-8 5 -8 5 -6 5 C-6 4.34 -6 3.68 -6 3 C-4.02 2.01 -2.04 1.02 0 0 Z " fill="#F3914D" transform="translate(93,278)"/>
<path d="M0 0 C0.66 0.33 1.32 0.66 2 1 C0.2527456 2.29537826 -1.49791517 3.58616273 -3.25 4.875 C-4.22453125 5.59429687 -5.1990625 6.31359375 -6.203125 7.0546875 C-10.5840708 10.10176991 -10.5840708 10.10176991 -13 11 C-13.99 10.67 -14.98 10.34 -16 10 C-5.2 2.65306122 -5.2 2.65306122 0 0 Z " fill="#FDAA62" transform="translate(74,234)"/>
<path d="M0 0 C0.66 0.33 1.32 0.66 2 1 C1.67 1.99 1.34 2.98 1 4 C0.34 4 -0.32 4 -1 4 C-1 4.66 -1 5.32 -1 6 C-2.27057182 6.47985967 -3.54146848 6.9588593 -4.8125 7.4375 C-5.87404297 7.83775391 -5.87404297 7.83775391 -6.95703125 8.24609375 C-8.62672396 8.86225186 -10.31157704 9.43719235 -12 10 C-11.67 8.68 -11.34 7.36 -11 6 C-9.02 5.67 -7.04 5.34 -5 5 C-5 4.34 -5 3.68 -5 3 C-4.360625 2.690625 -3.72125 2.38125 -3.0625 2.0625 C-1.06389179 1.1654837 -1.06389179 1.1654837 0 0 Z " fill="#FCC151" transform="translate(101,216)"/>
<path d="M0 0 C0.66 0.33 1.32 0.66 2 1 C-3.75 5 -3.75 5 -6 5 C-6 5.66 -6 6.32 -6 7 C-6.99 7 -7.98 7 -9 7 C-9 7.66 -9 8.32 -9 9 C-10.98 9.33 -12.96 9.66 -15 10 C-10.8687271 5.18018162 -5.96000986 2.2152249 0 0 Z " fill="#D89A74" transform="translate(126,191)"/>
<path d="M0 0 C-1.65 0.66 -3.3 1.32 -5 2 C-5 2.66 -5 3.32 -5 4 C-6.98 4.33 -8.96 4.66 -11 5 C-11 5.66 -11 6.32 -11 7 C-12.8125 8.0625 -12.8125 8.0625 -15 9 C-15.99 8.67 -16.98 8.34 -18 8 C-4.2745098 -1.4248366 -4.2745098 -1.4248366 0 0 Z " fill="#DB966D" transform="translate(172,167)"/>
<path d="M0 0 C0.99 0.33 1.98 0.66 3 1 C2.01 3.31 1.02 5.62 0 8 C-0.66 8 -1.32 8 -2 8 C-2.33 8.99 -2.66 9.98 -3 11 C-3.99 11 -4.98 11 -6 11 C-6 11.66 -6 12.32 -6 13 C-7.32 13.33 -8.64 13.66 -10 14 C-10 13.34 -10 12.68 -10 12 C-8.74631372 11.03203757 -7.44575434 10.12423597 -6.125 9.25 C-2.40879052 6.5843091 -0.88093748 4.62492179 0 0 Z " fill="#F39A63" transform="translate(179,267)"/>
<path d="M0 0 C0.33 0.99 0.66 1.98 1 3 C-11.06896552 10 -11.06896552 10 -14 10 C-14 9.34 -14 8.68 -14 8 C-13.07316406 7.50628906 -12.14632812 7.01257813 -11.19140625 6.50390625 C-9.98172045 5.85686501 -8.77208778 5.20972446 -7.5625 4.5625 C-6.95083984 4.23701172 -6.33917969 3.91152344 -5.70898438 3.57617188 C-2.66283794 2.06284858 -2.66283794 2.06284858 0 0 Z " fill="#FDAF68" transform="translate(134,198)"/>
<path d="M0 0 C0.33 0.99 0.66 1.98 1 3 C-2 5 -2 5 -5 5 C-5 5.66 -5 6.32 -5 7 C-6.28650706 7.69710731 -7.57940665 8.38242876 -8.875 9.0625 C-9.59429687 9.44535156 -10.31359375 9.82820312 -11.0546875 10.22265625 C-11.69664063 10.47917969 -12.33859375 10.73570312 -13 11 C-13.66 10.67 -14.32 10.34 -15 10 C-13.87926138 9.16094435 -12.75325453 8.32892169 -11.625 7.5 C-10.99851562 7.0359375 -10.37203125 6.571875 -9.7265625 6.09375 C-8 5 -8 5 -6 5 C-6 4.34 -6 3.68 -6 3 C-4.02 2.67 -2.04 2.34 0 2 C0 1.34 0 0.68 0 0 Z " fill="#D69267" transform="translate(115,168)"/>
<path d="M0 0 C0.33 0.66 0.66 1.32 1 2 C-0.32539861 4.65079721 -1.61974614 4.90342592 -4.3125 6.0625 C-5.48232422 6.57490234 -5.48232422 6.57490234 -6.67578125 7.09765625 C-8.77560797 7.91288309 -10.80410124 8.51258082 -13 9 C-13 8.34 -13 7.68 -13 7 C-11.7315625 6.38125 -11.7315625 6.38125 -10.4375 5.75 C-6.88286417 3.94036721 -3.44966486 2.00080562 0 0 Z " fill="#E18450" transform="translate(90,211)"/>
<path d="M0 0 C0 0.99 0 1.98 0 3 C-1.78953185 3.83790789 -3.58169695 4.67019396 -5.375 5.5 C-6.87160156 6.19609375 -6.87160156 6.19609375 -8.3984375 6.90625 C-11 8 -11 8 -13 8 C-13 7.34 -13 6.68 -13 6 C-11.21118264 4.99491199 -9.41885304 3.99607264 -7.625 3 C-6.62726563 2.443125 -5.62953125 1.88625 -4.6015625 1.3125 C-2 0 -2 0 0 0 Z " fill="#F2863E" transform="translate(129,259)"/>
<path d="M0 0 C0 0.66 0 1.32 0 2 C-0.66 2 -1.32 2 -2 2 C-2 2.66 -2 3.32 -2 4 C-3.62249941 4.83819158 -5.24808497 5.6704116 -6.875 6.5 C-8.23238281 7.19609375 -8.23238281 7.19609375 -9.6171875 7.90625 C-12 9 -12 9 -14 9 C-14 8.34 -14 7.68 -14 7 C-11.4453125 5.2734375 -11.4453125 5.2734375 -8.125 3.375 C-7.03445312 2.74335938 -5.94390625 2.11171875 -4.8203125 1.4609375 C-2 0 -2 0 0 0 Z " fill="#F3995F" transform="translate(144,250)"/>
<path d="M0 0 C-4.62 2.64 -9.24 5.28 -14 8 C-14 7.01 -14 6.02 -14 5 C-12.23628182 3.96692229 -10.46374967 2.94887951 -8.6875 1.9375 C-7.70136719 1.36902344 -6.71523437 0.80054688 -5.69921875 0.21484375 C-3 -1 -3 -1 0 0 Z " fill="#DE8655" transform="translate(229,135)"/>
<path d="M0 0 C0.66 0 1.32 0 2 0 C0.68 5.28 -0.64 10.56 -2 16 C-2.66 16 -3.32 16 -4 16 C-3.39891424 10.34979382 -1.92471317 5.33835539 0 0 Z " fill="#DA9064" transform="translate(62,58)"/>
<path d="M0 0 C0.33 0 0.66 0 1 0 C0.58411954 6.19518473 -0.60251894 11.26689311 -3 17 C-3.66 17 -4.32 17 -5 17 C-1.92482916 5.47835991 -1.92482916 5.47835991 0 0 Z " fill="#D9966D" transform="translate(76,17)"/>
<path d="M0 0 C2 1 4 2 6 3 C6 3.66 6 4.32 6 5 C8.97 5.495 8.97 5.495 12 6 C11.67 6.99 11.34 7.98 11 9 C9 8 7 7 5 6 C4.236875 5.690625 3.47375 5.38125 2.6875 5.0625 C1 4 1 4 0.25 1.875 C0.1675 1.25625 0.085 0.6375 0 0 Z " fill="#EA834C" transform="translate(19,232)"/>
<path d="M0 0 C0 0.66 0 1.32 0 2 C-0.99 2 -1.98 2 -3 2 C-3 2.66 -3 3.32 -3 4 C-4.28913487 4.67154933 -5.58140204 5.33708859 -6.875 6 C-7.59429687 6.37125 -8.31359375 6.7425 -9.0546875 7.125 C-11 8 -11 8 -13 8 C-13 7.34 -13 6.68 -13 6 C-11.21118264 4.99491199 -9.41885304 3.99607264 -7.625 3 C-6.62726563 2.443125 -5.62953125 1.88625 -4.6015625 1.3125 C-2 0 -2 0 0 0 Z " fill="#F38C45" transform="translate(108,271)"/>
<path d="M0 0 C0 0.66 0 1.32 0 2 C-2.90548882 4.04169485 -4.40142046 5 -8 5 C-8 5.66 -8 6.32 -8 7 C-9.32 7.33 -10.64 7.66 -12 8 C-12 7.34 -12 6.68 -12 6 C-11.34 6 -10.68 6 -10 6 C-10 5.34 -10 4.68 -10 4 C-8.35 3.67 -6.7 3.34 -5 3 C-5 2.34 -5 1.68 -5 1 C-2 0 -2 0 0 0 Z " fill="#F39358" transform="translate(139,297)"/>
<path d="M0 0 C0 0.66 0 1.32 0 2 C-1.6796875 3.2890625 -1.6796875 3.2890625 -3.875 4.625 C-4.95394531 5.29402344 -4.95394531 5.29402344 -6.0546875 5.9765625 C-8 7 -8 7 -10 7 C-10 6.01 -10 5.02 -10 4 C-9.01 4 -8.02 4 -7 4 C-7 3.34 -7 2.68 -7 2 C-2.25 0 -2.25 0 0 0 Z " fill="#F28D4E" transform="translate(41,353)"/>
<path d="M0 0 C0.66 0.33 1.32 0.66 2 1 C-1.45922629 3.95051654 -4.7838704 6.25855517 -9 8 C-9.99 7.67 -10.98 7.34 -12 7 C-10.37554381 6.01993141 -8.75041739 5.04097364 -7.125 4.0625 C-6.22007812 3.51722656 -5.31515625 2.97195312 -4.3828125 2.41015625 C-2.94798364 1.56101983 -1.49124552 0.74562276 0 0 Z " fill="#E0966A" transform="translate(212,142)"/>
<path d="M0 0 C0 0.99 0 1.98 0 3 C-2.31 3.66 -4.62 4.32 -7 5 C-7 5.66 -7 6.32 -7 7 C-7.99 7 -8.98 7 -10 7 C-10 6.34 -10 5.68 -10 5 C-7 3 -7 3 -4 3 C-4 2.34 -4 1.68 -4 1 C-2 0 -2 0 0 0 Z " fill="#FDAE68" transform="translate(23,265)"/>
<path d="M0 0 C0.66 0.33 1.32 0.66 2 1 C0.8553125 2.051875 0.8553125 2.051875 -0.3125 3.125 C-2.96590478 5.96352604 -4.44000743 8.46949051 -6 12 C-6.71484375 10.265625 -6.71484375 10.265625 -7 8 C-5.56640625 5.859375 -5.56640625 5.859375 -3.5625 3.75 C-2.57443359 2.69039063 -2.57443359 2.69039063 -1.56640625 1.609375 C-1.04949219 1.07828125 -0.53257813 0.5471875 0 0 Z " fill="#D39E7D" transform="translate(86,0)"/>
<path d="M0 0 C0 0.66 0 1.32 0 2 C-1.65 2.33 -3.3 2.66 -5 3 C-5 3.66 -5 4.32 -5 5 C-6.65 5.33 -8.3 5.66 -10 6 C-10 5.34 -10 4.68 -10 4 C-3.375 0 -3.375 0 0 0 Z " fill="#FEAC65" transform="translate(127,246)"/>
<path d="M0 0 C-3.75 3 -3.75 3 -6 3 C-6.33 3.66 -6.66 4.32 -7 5 C-7.99 5.33 -8.98 5.66 -10 6 C-10 5.01 -10 4.02 -10 3 C-3.375 -1.125 -3.375 -1.125 0 0 Z " fill="#FDB06C" transform="translate(171,221)"/>
<path d="M0 0 C0 0.66 0 1.32 0 2 C-4.95 4.475 -4.95 4.475 -10 7 C-9.67 6.01 -9.34 5.02 -9 4 C-6.9375 3.3125 -6.9375 3.3125 -5 3 C-5 2.34 -5 1.68 -5 1 C-2 0 -2 0 0 0 Z " fill="#FDAF6A" transform="translate(56,288)"/>
<path d="M0 0 C0.99 0 1.98 0 3 0 C3 2.31 3 4.62 3 7 C2.01 7 1.02 7 0 7 C0 4.69 0 2.38 0 0 Z " fill="#F07428" transform="translate(179,260)"/>
<path d="M0 0 C0 0.66 0 1.32 0 2 C-3.33333333 3.66666667 -6.66666667 5.33333333 -10 7 C-10 6.01 -10 5.02 -10 4 C-3.375 0 -3.375 0 0 0 Z " fill="#DA8F63" transform="translate(183,160)"/>
<path d="M0 0 C3 3 3 3 3.3125 6.5625 C3 10 3 10 1 12 C0.67 8.04 0.34 4.08 0 0 Z " fill="#E37F4A" transform="translate(237,114)"/>
<path d="M0 0 C0.66 0 1.32 0 2 0 C2.33 2.97 2.66 5.94 3 9 C2.34 9 1.68 9 1 9 C0.67 6.03 0.34 3.06 0 0 Z " fill="#E0804A" transform="translate(10,215)"/>
<path d="M0 0 C-2 3 -2 3 -5.125 3.6875 C-6.07375 3.790625 -7.0225 3.89375 -8 4 C-7.67 3.01 -7.34 2.02 -7 1 C-4.53721199 -0.231394 -2.7204945 -0.07159196 0 0 Z " fill="#E37D46" transform="translate(88,188)"/>
<path d="M0 0 C2.64 0.99 5.28 1.98 8 3 C8 3.99 8 4.98 8 6 C2.33846154 4.52307692 2.33846154 4.52307692 0.625 1.875 C0.41875 1.25625 0.2125 0.6375 0 0 Z " fill="#F28C4D" transform="translate(9,359)"/>
<path d="M0 0 C-0.66 0 -1.32 0 -2 0 C-2 0.66 -2 1.32 -2 2 C-4.31 2.66 -6.62 3.32 -9 4 C-9 3.34 -9 2.68 -9 2 C-3.375 -1.125 -3.375 -1.125 0 0 Z " fill="#F39154" transform="translate(72,337)"/>
<path d="M0 0 C-5.75 4 -5.75 4 -8 4 C-8 3.34 -8 2.68 -8 2 C-3.61016949 -1.20338983 -3.61016949 -1.20338983 0 0 Z " fill="#F4965B" transform="translate(82,331)"/>
<path d="M0 0 C0.99 0.33 1.98 0.66 3 1 C1 4 1 4 -2.125 4.6875 C-3.07375 4.790625 -4.0225 4.89375 -5 5 C-4.34 4.01 -3.68 3.02 -3 2 C-2.01 2 -1.02 2 0 2 C0 1.34 0 0.68 0 0 Z " fill="#DD8350" transform="translate(206,114)"/>
</svg>
