<?xml version="1.0" encoding="UTF-8"?>
<svg version="1.1" xmlns="http://www.w3.org/2000/svg" width="142" height="277">
<path d="M0 0 C1.60368407 -0.00134962 3.20736774 -0.00329262 4.81105042 -0.00579834 C8.16224079 -0.0087365 11.51332409 -0.00449483 14.86450195 0.00488281 C19.13897718 0.01626732 23.41320091 0.00971593 27.68766689 -0.00226212 C30.99670776 -0.00952408 34.30569001 -0.00717281 37.61473274 -0.00200653 C39.18984063 -0.00068152 40.764954 -0.00227704 42.34005547 -0.00696564 C61.08711852 -0.05052844 61.08711852 -0.05052844 68.08203125 3.56640625 C70.07720716 5.85035762 70.16056286 7.45313978 70.31640625 10.453125 C70.373125 11.35417969 70.42984375 12.25523438 70.48828125 13.18359375 C70.5140625 13.87066406 70.53984375 14.55773438 70.56640625 15.265625 C71.25347656 15.44738281 71.94054687 15.62914062 72.6484375 15.81640625 C73.54949219 16.06777344 74.45054688 16.31914062 75.37890625 16.578125 C76.27222656 16.82175781 77.16554688 17.06539062 78.0859375 17.31640625 C80.65513503 18.29957948 81.91237132 19.08926325 83.56640625 21.265625 C83.75390625 23.953125 83.75390625 23.953125 83.56640625 26.265625 C80.57956688 27.75904469 78.61479647 26.67211176 75.44140625 25.828125 C74.34570312 25.54066406 73.25 25.25320312 72.12109375 24.95703125 C71.27804688 24.72886719 70.435 24.50070313 69.56640625 24.265625 C69.57966761 25.99036561 69.57966761 25.99036561 69.59319687 27.74994946 C69.80212495 55.0395436 69.99028692 82.32921534 70.15284984 109.6191269 C70.17287314 112.97744946 70.19307182 116.33577094 70.21337891 119.6940918 C70.21741876 120.36267795 70.22145862 121.03126411 70.2256209 121.72011045 C70.2914671 132.54826012 70.37152282 143.37626052 70.45682284 154.20427241 C70.54402117 165.31337299 70.61566469 176.42250797 70.67372727 187.53180057 C70.70683766 193.77236162 70.74706493 200.0126962 70.80413055 206.253088 C70.85759639 212.12410826 70.89228252 217.99493702 70.91243553 223.86616325 C70.92317431 226.02332404 70.94083205 228.18046293 70.96585274 230.33750534 C70.99894418 233.27874325 71.00732926 236.21904675 71.00946045 239.16044617 C71.03277392 240.44595848 71.03277392 240.44595848 71.05655837 241.75744075 C71.03377236 245.77599344 70.89139612 247.75619767 68.67958927 251.22324371 C63.93316235 255.81064264 60.11514414 256.71738542 53.63012695 256.7331543 C52.84566696 256.74644272 52.06120697 256.75973114 51.25297546 256.77342224 C48.66594244 256.81203232 46.0794723 256.82770268 43.4921875 256.83984375 C41.68482851 256.85457376 39.87747072 256.86945338 38.07011414 256.88447571 C34.2814884 256.91144946 30.49305855 256.92501029 26.7043457 256.93139648 C21.86968483 256.94224494 17.03712188 257.00389097 12.20307636 257.0781126 C8.46845161 257.12669767 4.73432431 257.13893049 0.99941063 257.14145851 C-0.78151509 257.1486525 -2.56244149 257.16898636 -4.34305382 257.20316124 C-6.84702719 257.24753554 -9.34614852 257.24033674 -11.8503418 257.22143555 C-12.57329437 257.24548462 -13.29624695 257.26953369 -14.04110718 257.29431152 C-19.72534785 257.16917497 -24.18256492 255.05647354 -28.43837833 251.32847309 C-33.0578128 244.23719567 -31.65930794 234.94522023 -31.47705078 226.79492188 C-31.46436125 224.58689394 -31.45609713 222.37883681 -31.45191956 220.17077637 C-31.42808281 214.18693823 -31.34242459 208.20539929 -31.24560404 202.2223568 C-31.15489073 195.96592646 -31.12110655 189.70919436 -31.08126831 183.45227051 C-31.00676373 172.95403253 -30.8972377 162.45657568 -30.76074219 151.95898438 C-30.62028409 141.14923141 -30.50103075 130.3395853 -30.41015625 119.52929688 C-30.40454202 118.86231165 -30.39892779 118.19532643 -30.39314343 117.50812954 C-30.36510722 114.16186542 -30.3375091 110.81559798 -30.31007218 107.46932888 C-30.08138488 79.73396171 -29.78107753 51.99974023 -29.43359375 24.265625 C-30.04775146 24.4085498 -30.66190918 24.55147461 -31.29467773 24.69873047 C-32.50619507 24.97547607 -32.50619507 24.97547607 -33.7421875 25.2578125 C-34.54197021 25.4419873 -35.34175293 25.62616211 -36.16577148 25.81591797 C-38.63190458 26.30494985 -40.92488627 26.4274771 -43.43359375 26.265625 C-43.79503953 21.80779367 -43.79503953 21.80779367 -42.30859375 19.578125 C-38.23943513 16.72971396 -34.28557554 16.15871693 -29.43359375 16.265625 C-29.49160156 15.59015625 -29.54960937 14.9146875 -29.609375 14.21875 C-29.97725668 6.94520366 -29.97725668 6.94520366 -27.43359375 3.765625 C-18.69728239 -0.60253068 -9.52591063 -0.02831361 0 0 Z M-21.43359375 27.265625 C-20.64371902 29.18303083 -19.85162227 31.09952141 -19.05859375 33.015625 C-18.61773437 34.08296875 -18.176875 35.1503125 -17.72265625 36.25 C-16.7005179 38.64118426 -15.6314578 40.95945683 -14.43359375 43.265625 C-13.60085937 43.0490625 -12.768125 42.8325 -11.91015625 42.609375 C9.3819672 37.94497473 33.35953961 38.63867228 54.56640625 43.265625 C56.87640625 37.655625 59.18640625 32.045625 61.56640625 26.265625 C59.50390625 25.46125 57.44140625 24.656875 55.31640625 23.828125 C54.15625 23.37566406 52.99609375 22.92320313 51.80078125 22.45703125 C47.67307038 20.93655804 44.25118556 20.1420517 39.85229492 20.07275391 C38.91999557 20.05669098 37.98769623 20.04062805 37.02714539 20.02407837 C32.7359622 19.97910305 28.44492943 19.93849408 24.15356445 19.91552734 C21.90671355 19.89906926 19.65991276 19.87191606 17.41333008 19.83349609 C-3.34112354 18.75277173 -3.34112354 18.75277173 -21.43359375 27.265625 Z M-22.43359375 39.265625 C-22.48422905 46.33143052 -22.51929995 53.3971894 -22.54345703 60.46313477 C-22.55352576 62.86777495 -22.5671816 65.27240286 -22.58447266 67.67700195 C-22.60868249 71.12975084 -22.62006807 74.5823381 -22.62890625 78.03515625 C-22.63922882 79.11336136 -22.64955139 80.19156647 -22.66018677 81.30244446 C-22.66033783 82.30325546 -22.66048889 83.30406647 -22.66064453 84.33520508 C-22.66508575 85.21678787 -22.66952698 86.09837067 -22.67410278 87.00666809 C-22.57999436 89.54814149 -22.57999436 89.54814149 -20.43359375 92.265625 C-18.37434236 92.98944967 -18.37434236 92.98944967 -16.43359375 93.265625 C-16.31670949 83.59020544 -16.44014504 73.93525232 -16.80859375 64.265625 C-16.83945068 63.31163818 -16.87030762 62.35765137 -16.90209961 61.37475586 C-17.22577413 53.66645717 -18.23305077 46.35254159 -21.43359375 39.265625 C-21.76359375 39.265625 -22.09359375 39.265625 -22.43359375 39.265625 Z M61.56640625 40.265625 C58.42769505 44.97369181 57.48550276 48.684517 57.25 54.2734375 C57.2080249 55.25248047 57.1660498 56.23152344 57.12280273 57.24023438 C57.08356689 58.27986328 57.04433105 59.31949219 57.00390625 60.390625 C56.96144775 61.45345703 56.91898926 62.51628906 56.87524414 63.61132812 C56.53158317 72.8327823 56.46156232 82.03935938 56.56640625 91.265625 C57.88640625 91.595625 59.20640625 91.925625 60.56640625 92.265625 C62.72830478 89.02277721 62.8126738 88.16466279 62.79345703 84.42700195 C62.79330597 83.4462117 62.79315491 82.46542145 62.79299927 81.45491028 C62.7826767 80.39857895 62.77235413 79.34224762 62.76171875 78.25390625 C62.75888885 77.17054489 62.75605896 76.08718353 62.75314331 74.97099304 C62.74193716 71.50659192 62.71683159 68.04244815 62.69140625 64.578125 C62.68137702 62.23112352 62.67225107 59.884118 62.6640625 57.53710938 C62.64199641 51.77985993 62.60851452 46.02276085 62.56640625 40.265625 C62.23640625 40.265625 61.90640625 40.265625 61.56640625 40.265625 Z M-21.43359375 108.265625 C-21.53211842 110.03491457 -21.55991464 111.80816965 -21.56057739 113.5802002 C-21.56339722 114.7328688 -21.56621704 115.88553741 -21.56912231 117.07313538 C-21.56709808 118.34902023 -21.56507385 119.62490509 -21.56298828 120.93945312 C-21.56434231 122.28771512 -21.56612225 123.63597675 -21.56829834 124.98423767 C-21.57287248 128.65562528 -21.5710832 132.32698491 -21.56791925 135.99837303 C-21.56539555 139.83229017 -21.56773322 143.66620484 -21.56930542 147.50012207 C-21.57112709 153.93970166 -21.56872088 160.3792698 -21.56396484 166.81884766 C-21.55852223 174.27434663 -21.56028489 181.72981826 -21.56579125 189.18531656 C-21.57032246 195.57511076 -21.57097289 201.9648967 -21.56835258 208.35469198 C-21.56678985 212.17600548 -21.56659592 215.9973061 -21.56988907 219.81861877 C-21.57276791 223.41036325 -21.57079187 227.00207231 -21.56499481 230.59381294 C-21.56303168 232.54857967 -21.56602102 234.50334937 -21.56912231 236.45811462 C-21.56630249 237.61078323 -21.56348267 238.76345184 -21.56057739 239.9510498 C-21.56020037 240.9591143 -21.55982334 241.9671788 -21.55943489 243.00579071 C-21.68722537 245.23422603 -21.68722537 245.23422603 -20.43359375 246.265625 C-17.46093291 246.36779154 -14.51219162 246.40521411 -11.5390625 246.3984375 C-10.1377282 246.39987259 -10.1377282 246.39987259 -8.70808411 246.40133667 C-6.69951308 246.40202094 -4.69093989 246.40014966 -2.68237305 246.39599609 C0.2450129 246.39085992 3.17222973 246.39581782 6.09960938 246.40234375 C24.61606959 246.39013375 43.03483955 245.78039074 61.56640625 245.265625 C61.56640625 199.725625 61.56640625 154.185625 61.56640625 107.265625 C41.30234375 107.2346875 41.30234375 107.2346875 20.62890625 107.203125 C16.35703369 107.194021 12.08516113 107.18491699 7.68383789 107.17553711 C3.86779063 107.1721935 3.86779063 107.1721935 0.05174255 107.17018127 C-1.65321615 107.16864169 -3.35817374 107.16511646 -5.06312561 107.16004944 C-7.63967797 107.15277224 -10.21616357 107.15171757 -12.79272461 107.15209961 C-13.55733222 107.1485015 -14.32193983 107.14490339 -15.10971737 107.14119625 C-18.56105816 106.83459138 -18.56105816 106.83459138 -21.43359375 108.265625 Z " fill="#121213" transform="translate(52.43359375,14.734375)"/>
<path d="M0 0 C1.24206711 -0.00315216 2.48413422 -0.00630432 3.76383972 -0.009552 C5.10338375 -0.00776087 6.44292744 -0.00570958 7.7824707 -0.00341797 C9.17861447 -0.00409307 10.57475812 -0.00506481 11.97090149 -0.00631714 C14.89174523 -0.00778685 17.81255828 -0.00566462 20.73339844 -0.00097656 C24.4436805 0.00469371 28.15388978 0.00145429 31.86416912 -0.00454903 C34.74783354 -0.00819709 37.63148128 -0.00699631 40.51514626 -0.00442123 C42.53774183 -0.00344557 44.5603381 -0.00644097 46.58293152 -0.009552 C54.27941284 0.00973565 61.86305285 0.34884253 69.52075195 1.12939453 C69.19075195 4.42939453 68.86075195 7.72939453 68.52075195 11.12939453 C41.79075195 11.12939453 15.06075195 11.12939453 -12.47924805 11.12939453 C-12.80924805 7.82939453 -13.13924805 4.52939453 -13.47924805 1.12939453 C-8.94347373 0.40849897 -4.59110844 0.00336584 0 0 Z " fill="#010101" transform="translate(44.479248046875,15.87060546875)"/>
<path d="M0 0 C1.65 0.33 3.3 0.66 5 1 C5 44.23 5 87.46 5 132 C3.02 132 1.04 132 -1 132 C-1.02332863 114.93699413 -1.04097899 97.87399322 -1.05181217 80.81097507 C-1.05697521 72.88887055 -1.06401805 64.96677591 -1.07543945 57.04467773 C-1.08538606 50.14225363 -1.09185337 43.23983669 -1.09408849 36.33740562 C-1.09539564 32.68039339 -1.09848174 29.02340164 -1.10573006 25.36639595 C-1.11374348 21.29055994 -1.11399115 17.21475987 -1.11352539 13.13891602 C-1.11712067 11.91756454 -1.12071594 10.69621307 -1.12442017 9.43785095 C-1.1230455 8.33422211 -1.12167084 7.23059326 -1.12025452 6.09352112 C-1.12117631 5.12840386 -1.1220981 4.16328661 -1.12304783 3.16892338 C-1 1 -1 1 0 0 Z " fill="#59595A" transform="translate(66,125)"/>
<path d="M0 0 C1.65 0 3.3 0 5 0 C5 43.56 5 87.12 5 132 C4.34 132.33 3.68 132.66 3 133 C2.01 132.67 1.02 132.34 0 132 C0 88.44 0 44.88 0 0 Z " fill="#424144" transform="translate(46,125)"/>
<path d="M0 0 C1.65 0.33 3.3 0.66 5 1 C4.67 44.56 4.34 88.12 4 133 C2.35 132.67 0.7 132.34 -1 132 C-1.02332863 114.93699413 -1.04097899 97.87399322 -1.05181217 80.81097507 C-1.05697521 72.88887055 -1.06401805 64.96677591 -1.07543945 57.04467773 C-1.08538606 50.14225363 -1.09185337 43.23983669 -1.09408849 36.33740562 C-1.09539564 32.68039339 -1.09848174 29.02340164 -1.10573006 25.36639595 C-1.11374348 21.29055994 -1.11399115 17.21475987 -1.11352539 13.13891602 C-1.11712067 11.91756454 -1.12071594 10.69621307 -1.12442017 9.43785095 C-1.1230455 8.33422211 -1.12167084 7.23059326 -1.12025452 6.09352112 C-1.12117631 5.12840386 -1.1220981 4.16328661 -1.12304783 3.16892338 C-1 1 -1 1 0 0 Z " fill="#414141" transform="translate(37,125)"/>
<path d="M0 0 C1.65 0 3.3 0 5 0 C5 43.56 5 87.12 5 132 C3.35 132 1.7 132 0 132 C0 88.44 0 44.88 0 0 Z " fill="#414141" transform="translate(85,125)"/>
<path d="M0 0 C2.475 0.495 2.475 0.495 5 1 C5 44.23 5 87.46 5 132 C3.35 132 1.7 132 0 132 C0 88.44 0 44.88 0 0 Z " fill="#414142" transform="translate(95,125)"/>
<path d="M0 0 C2.475 0.495 2.475 0.495 5 1 C5 44.23 5 87.46 5 132 C3.35 132 1.7 132 0 132 C0 88.44 0 44.88 0 0 Z " fill="#4A4A4C" transform="translate(56,125)"/>
<path d="M0 0 C1.32 0 2.64 0 4 0 C4 43.89 4 87.78 4 133 C2.68 132.67 1.36 132.34 0 132 C0 88.44 0 44.88 0 0 Z " fill="#1F1F20" transform="translate(105,125)"/>
<path d="M0 0 C1.32 0 2.64 0 4 0 C4 43.56 4 87.12 4 132 C2.68 132 1.36 132 0 132 C-0.15375824 114.93704076 -0.30179527 97.87404289 -0.4429636 80.81097507 C-0.5086403 72.8888496 -0.57621098 64.96674863 -0.64819336 57.04467773 C-0.7109059 50.14228232 -0.7701128 43.23986742 -0.82505554 36.33740562 C-0.85428895 32.68037346 -0.88531466 29.02337577 -0.92053413 25.36639595 C-0.95972158 21.29060144 -0.99108434 17.2147837 -1.02172852 13.13891602 C-1.03467453 11.91756454 -1.04762054 10.69621307 -1.06095886 9.43785095 C-1.06799835 8.33422211 -1.07503784 7.23059326 -1.08229065 6.09352112 C-1.09058679 5.12840386 -1.09888292 4.16328661 -1.10743046 3.16892338 C-1 1 -1 1 0 0 Z " fill="#1D1D1F" transform="translate(76,125)"/>
<path d="M0 0 C0.99 0.66 1.98 1.32 3 2 C3.1875 4.625 3.1875 4.625 3 7 C0.01316063 8.49341969 -1.95160978 7.40648676 -5.125 6.5625 C-6.22070312 6.27503906 -7.31640625 5.98757812 -8.4453125 5.69140625 C-9.28835937 5.46324219 -10.13140625 5.23507813 -11 5 C-10.99392447 6.15259245 -10.98784895 7.3051849 -10.98158932 8.49270439 C-10.83771067 35.83067523 -10.69902095 63.16866829 -10.5667524 90.50669789 C-10.5504807 93.86888602 -10.53416506 97.23107393 -10.51782227 100.59326172 C-10.51456934 101.26263481 -10.51131642 101.93200789 -10.50796492 102.62166502 C-10.45513518 113.47116068 -10.39874265 124.32063507 -10.3410418 135.1701058 C-10.28194876 146.29620018 -10.22674063 157.42231006 -10.17494446 168.54844105 C-10.14571469 174.80052872 -10.11469099 181.05259617 -10.07946587 187.30465317 C-10.04640144 193.18304107 -10.01801422 199.06143256 -9.99329376 204.9398613 C-9.98335778 207.10308198 -9.97167819 209.26629544 -9.95816994 211.42949677 C-9.9400529 214.37152702 -9.92807606 217.31351849 -9.91770935 220.25558472 C-9.91090556 221.12133145 -9.90410177 221.98707819 -9.89709181 222.87905967 C-9.88587879 228.77175758 -9.88587879 228.77175758 -11 231 C-11.66 230.67 -12.32 230.34 -13 230 C-12.67 155.42 -12.34 80.84 -12 4 C-9.03 4 -6.06 4 -3 4 C-2.01 3.34 -1.02 2.68 0 2 C0 1.34 0 0.68 0 0 Z " fill="#3D3D3D" transform="translate(133,34)"/>
<path d="M0 0 C-2.04907821 1.02453911 -4.05879383 2.02351753 -6.1875 2.875 C-8.20077462 3.86279272 -8.20077462 3.86279272 -8.75 6.125 C-8.8325 6.74375 -8.915 7.3625 -9 8 C-7.02 8 -5.04 8 -3 8 C-3 8.33 -3 8.66 -3 9 C-6.63 9.33 -10.26 9.66 -14 10 C-14 5 -14 5 -12.875 3.3125 C-8.8838852 0.51871964 -4.80369557 -0.28257033 0 0 Z " fill="#343436" transform="translate(23,31)"/>
<path d="M0 0 C0.99 0.66 1.98 1.32 3 2 C3.1875 4.625 3.1875 4.625 3 7 C0.01316063 8.49341969 -1.95160978 7.40648676 -5.125 6.5625 C-6.22070312 6.27503906 -7.31640625 5.98757812 -8.4453125 5.69140625 C-9.28835937 5.46324219 -10.13140625 5.23507813 -11 5 C-11 8.63 -11 12.26 -11 16 C-11.33 16 -11.66 16 -12 16 C-12 12.04 -12 8.08 -12 4 C-10.576875 4.04125 -9.15375 4.0825 -7.6875 4.125 C-4.01939967 4.23132175 -3.20380017 4.13586678 0 2 C0 1.34 0 0.68 0 0 Z " fill="#626264" transform="translate(133,34)"/>
<path d="M0 0 C0.66 1.32 1.32 2.64 2 4 C2.66 4.33 3.32 4.66 4 5 C4.33 4.01 4.66 3.02 5 2 C4.44271087 5.34373475 3.64826111 8.03312999 2 11 C1.34 9.68 0.68 8.36 0 7 C-0.99 8.485 -0.99 8.485 -2 10 C-2.99 9.67 -3.98 9.34 -5 9 C-4.34 9 -3.68 9 -3 9 C-2.01 6.03 -1.02 3.06 0 0 Z " fill="#727273" transform="translate(110,49)"/>
<path d="M0 0 C-3.33333333 1.66666667 -6.66666667 3.33333333 -10 5 C-10.66 4.34 -11.32 3.68 -12 3 C-4.71428571 -0.42857143 -4.71428571 -0.42857143 0 0 Z " fill="#7B7B83" transform="translate(23,31)"/>
<path d="M0 0 C0.33 0.66 0.66 1.32 1 2 C1.66 2.33 2.32 2.66 3 3 C2.67 3.33 2.34 3.66 2 4 C2.66 4.66 3.32 5.32 4 6 C2.35 6 0.7 6 -1 6 C-1.042721 4.33388095 -1.04063832 2.66617115 -1 1 C-0.67 0.67 -0.34 0.34 0 0 Z " fill="#6C6C6F" transform="translate(10,35)"/>
<path d="" fill="#FFFFFF" transform="translate(0,0)"/>
<path d="" fill="#FFFFFF" transform="translate(0,0)"/>
<path d="" fill="#FFFFFF" transform="translate(0,0)"/>
</svg>
